<svg viewBox="0 0 3840 3840" xmlns="http://www.w3.org/2000/svg">
    <defs>
        <style>
            .cls-1{fill:#344b52;}.cls-2{fill:#587983;}.cls-3{fill:#fff;}.cls-4{fill:#d1ad99;}.cls-5{fill:#edd2c0;}
        </style>
    </defs>
    <title>icon app</title>
    <g data-name="Calque 2" id="Calque_2">
        <path class="cls-1"
            d="M1920,708c-629.07,0-1139,510-1139,1139v147.1c0,629.07,510,1139,1139,1139s1139-510,1139-1139V1847C3059,1217.94,2549.07,708,1920,708Z"
            transform="translate(-3.5 0)" />
        <rect class="cls-1" height="3840" width="3840" />
    </g>
    <g data-name="Calque 1" id="Calque_1">
        <path class="cls-2"
            d="M2804.83,1319c-73.92-69-166-109.92-265.79-109.92-6,0-12,.19-18,.49-135.82,6.74-255.82,89.25-333,214.24a578.44,578.44,0,0,0-44.21,87.74c-55.67,85.71-135.32,139.39-223.8,139.39s-168.13-53.68-223.8-139.39a578.44,578.44,0,0,0-44.21-87.74c-77.19-125-197.19-207.5-333-214.24-6-.3-12-.49-18-.49-99.82,0-191.87,40.94-265.79,109.92a483.74,483.74,0,0,0-175.34,373.53V2014.8c0,267,215,483.45,480.2,483.45,155.67,0,294-74.6,381.75-190.21a407.72,407.72,0,0,0,71.84,6.36H2062a408,408,0,0,0,57.9-4.14c87.82,114.34,225.39,188,380.06,188,265.21,0,480.2-216.45,480.2-483.45V1692.49A483.74,483.74,0,0,0,2804.83,1319Z"
            transform="translate(-3.5 0)" />
        <path class="cls-3"
            d="M1381.54,1418.78c-180.13,0-326.15,146-326.15,326.15v217.43c0,180.13,146,326.15,326.15,326.15s326.14-146,326.14-326.15V1744.93C1707.68,1564.8,1561.66,1418.78,1381.54,1418.78Z"
            transform="translate(-3.5 0)" />
        <path class="cls-3"
            d="M2458.46,2277.3c175.49,0,317.75-142.25,317.75-317.74V1747.73c0-175.48-142.26-317.74-317.75-317.74s-317.74,142.26-317.74,317.74v211.83C2140.72,2135.05,2283,2277.3,2458.46,2277.3Z"
            transform="translate(-3.5 0)" />
        <path class="cls-1"
            d="M1461.86,1644.08a153,153,0,0,0-39.21,5.11A98.28,98.28,0,0,1,1320.3,1816v116.78c0,72,63.38,130.45,141.56,130.45s141.57-58.4,141.57-130.45V1774.53C1603.43,1702.48,1540.05,1644.08,1461.86,1644.08Z"
            transform="translate(-3.5 0)" />
        <path class="cls-1"
            d="M2373.6,1644.08a153,153,0,0,0-39.21,5.11A98.28,98.28,0,0,1,2232,1816v116.78c0,72,63.38,130.45,141.56,130.45s141.57-58.4,141.57-130.45V1774.53C2515.17,1702.48,2451.79,1644.08,2373.6,1644.08Z"
            transform="translate(-3.5 0)" />
        <circle class="cls-4" cx="1916.5" cy="2349" r="142.82" />
        <path class="cls-5"
            d="M2116,2314.49c0,47.29-196,70.94-196,70.94s-196-23.65-196-70.94c0-94.6,87.76-171.28,196-171.28S2116,2219.89,2116,2314.49Z"
            transform="translate(-3.5 0)" />
        <path class="cls-2"
            d="M2090.6,1271.29c0,21.9-126.65,23.54-169.41,23.54s-169.41,1.08-169.41-23.54c0-81.76,75.85-148,169.41-148S2090.6,1189.53,2090.6,1271.29Z"
            transform="translate(-3.5 0)" />
    </g>
</svg>