<svg viewBox="0 0 3054.11 2550.16" xmlns="http://www.w3.org/2000/svg">
    <defs>
        <style>
            .cls-1{fill:#344b52;}.cls-2{fill:#edd2c0;}.cls-3{fill:#587983;}.cls-4{fill:#fff;}.cls-5{fill:#d1ad99;}
        </style>
    </defs>
    <title>logo chouette</title>
    <g id="ailes">
        <path class="cls-1"
            d="M1051.13,1829.5a570.79,570.79,0,0,0-45.41-172.21,552.23,552.23,0,0,0-129-181.81l-206.08,355.4h.89L407,2287.18h0a102.1,102.1,0,0,0,51.63,147q-2.64-.94-5.22-2h-1.74a1054.28,1054.28,0,0,0,346.44,58.17c443.49,0,823.09-273.43,979.47-660.9Z"
            transform="translate(-392.94 -544.97)" />
        <path class="cls-1"
            d="M2788.87,1829.5a570.79,570.79,0,0,1,45.41-172.21,552.23,552.23,0,0,1,129-181.81l206.08,355.4h-.89L3433,2287.18h0a102.1,102.1,0,0,1-51.63,147q2.64-.94,5.22-2h1.74a1054.28,1054.28,0,0,1-346.44,58.17c-443.49,0-823.09-273.43-979.47-660.9Z"
            transform="translate(-392.94 -544.97)" />
    </g>
    <g data-name="corps +pattes" id="corps_pattes">
        <g id="pattes">
            <path class="cls-2"
                d="M1755.43,2876.6H1498a109.27,109.27,0,0,0,0,218.54h257.41a109.27,109.27,0,0,0,0-218.54Z"
                transform="translate(-392.94 -544.97)" />
            <path class="cls-2"
                d="M2342,2876.6H2084.57a109.27,109.27,0,0,0,0,218.54H2342a109.27,109.27,0,0,0,0-218.54Z"
                transform="translate(-392.94 -544.97)" />
        </g>
        <g id="corps">
            <path class="cls-1"
                d="M1920,545c-629.07,0-1139,510-1139,1139v147.1c0,629.07,510,1139,1139,1139s1139-510,1139-1139V1684C3059,1054.94,2549.07,545,1920,545Z"
                transform="translate(-392.94 -544.97)" />
        </g>
    </g>
    <g id="Visage">
        <g id="yeux">
            <path class="cls-3"
                d="M2663.94,1068.27c-62.15-58-139.55-92.42-223.47-92.42-5.07,0-10.12.16-15.15.41-114.19,5.67-215.09,75-280,180.13a484.85,484.85,0,0,0-37.17,73.77c-46.81,72.06-113.78,117.19-188.17,117.19s-141.36-45.13-188.17-117.19a484.85,484.85,0,0,0-37.17-73.77c-64.89-105.09-165.79-174.46-280-180.13-5-.25-10.08-.41-15.15-.41-83.92,0-161.32,34.42-223.47,92.42a406.72,406.72,0,0,0-147.42,314v271c0,224.49,180.76,406.47,403.73,406.47,130.89,0,247.2-62.72,321-159.92a342.47,342.47,0,0,0,60.4,5.34h225.65a344.28,344.28,0,0,0,48.69-3.47c73.84,96.13,189.5,158.05,319.55,158.05,223,0,403.73-182,403.73-406.47v-271A406.72,406.72,0,0,0,2663.94,1068.27Z"
                transform="translate(-392.94 -544.97)" />
            <path class="cls-4"
                d="M1467.27,1152.19c-151.44,0-274.21,122.77-274.21,274.22v182.81c0,151.45,122.77,274.22,274.21,274.22s274.22-122.77,274.22-274.22V1426.41C1741.49,1275,1618.72,1152.19,1467.27,1152.19Z"
                transform="translate(-392.94 -544.97)" />
            <path class="cls-4"
                d="M2372.73,1874c147.54,0,267.15-119.61,267.15-267.15V1428.76c0-147.54-119.61-267.15-267.15-267.15s-267.16,119.61-267.16,267.15v178.11C2105.57,1754.41,2225.18,1874,2372.73,1874Z"
                transform="translate(-392.94 -544.97)" />
            <path class="cls-1"
                d="M1534.81,1341.62a128.38,128.38,0,0,0-33,4.3,82.63,82.63,0,0,1-86,140.23v98.19c0,60.57,53.29,109.67,119,109.67s119-49.1,119-109.67v-133C1653.83,1390.72,1600.55,1341.62,1534.81,1341.62Z"
                transform="translate(-392.94 -544.97)" />
            <path class="cls-1"
                d="M2301.38,1341.62a128.32,128.32,0,0,0-33,4.3,82.63,82.63,0,0,1-86.06,140.23v98.19c0,60.57,53.29,109.67,119,109.67s119-49.1,119-109.67v-133C2420.4,1390.72,2367.11,1341.62,2301.38,1341.62Z"
                transform="translate(-392.94 -544.97)" />
        </g>
        <g id="bec">
            <circle class="cls-5" cx="1527.06" cy="1389.32" r="120.08" />
            <path class="cls-2"
                d="M2084.8,1905.28c0,39.76-164.8,59.65-164.8,59.65s-164.8-19.89-164.8-59.65c0-79.53,73.78-144,164.8-144S2084.8,1825.75,2084.8,1905.28Z"
                transform="translate(-392.94 -544.97)" />
        </g>
    </g>
    <g id="plumes">
        <path class="cls-3"
            d="M1777.56,2598.22c0-18.41,106.49-19.79,142.44-19.79s142.44-.91,142.44,19.79c0,68.74-63.77,124.47-142.44,124.47S1777.56,2667,1777.56,2598.22Z"
            transform="translate(-392.94 -544.97)" />
        <path class="cls-3"
            d="M2135.53,2365.94c0-18.42,106.48-19.8,142.43-19.8s142.44-.91,142.44,19.8c0,68.74-63.77,124.46-142.44,124.46S2135.53,2434.68,2135.53,2365.94Z"
            transform="translate(-392.94 -544.97)" />
        <path class="cls-3"
            d="M1425.09,2365.94c0-18.42,106.49-19.8,142.44-19.8s142.44-.91,142.44,19.8c0,68.74-63.77,124.46-142.44,124.46S1425.09,2434.68,1425.09,2365.94Z"
            transform="translate(-392.94 -544.97)" />
        <path class="cls-3"
            d="M2062.44,1028.18c0,18.42-106.49,19.79-142.44,19.79s-142.44.92-142.44-19.79c0-68.74,63.77-124.46,142.44-124.46S2062.44,959.44,2062.44,1028.18Z"
            transform="translate(-392.94 -544.97)" />
    </g>
</svg>